<svg width="82" height="46" viewBox="0 0 82 46" fill="none" xmlns="http://www.w3.org/2000/svg">
<path d="M33.0171 18.3936C33.1875 18.3409 36.4255 30.9522 37.1072 36.288C37.7889 41.6238 37.2777 42.5936 36.4255 43.2753C35.7439 43.8207 35.119 43.7298 34.8917 43.6162" stroke="black" stroke-width="3" stroke-linecap="round"/>
<path d="M60.2847 42.0297L60.1143 42.2001" stroke="black" stroke-width="3" stroke-linecap="round"/>
<path d="M67.1015 4.41891C68.5217 4.02125 70.6804 3.15778 67.9536 2.8851C64.5452 2.54425 46.4804 1.46899 30.4606 2.32111C14.4409 3.17322 2 4.93018 2 7.14568C2 9.36118 12.0549 10.3837 37.2775 12.5992C62.5001 14.8147 79.7128 17.3711 79.8832 21.2908C80.0537 25.2105 68.9762 27.7668 51.4226 28.2781C37.3798 28.6871 15.2362 26.0626 5.91973 24.6992" stroke="black" stroke-width="3" stroke-linecap="round"/>
</svg>
