<svg width="24" height="26" viewBox="0 0 24 26" fill="none" xmlns="http://www.w3.org/2000/svg">
<path fill-rule="evenodd" clip-rule="evenodd" d="M8.96398 25.397C8.7852 25.1972 8.7852 23.5966 8.96398 20.2362C7.04878 20.2934 5.83872 20.1783 5.3338 19.8909C4.57652 19.4598 3.81831 18.1304 3.14562 17.1934C2.47292 16.2565 0.979802 16.1083 0.376898 15.8989C-0.226025 15.6894 -0.377379 14.8356 2.03826 15.4813C4.45394 16.1271 4.57171 17.8855 5.3338 18.2966C6.09589 18.7078 7.91773 18.5279 8.7436 18.1985C9.56938 17.8691 9.50865 16.6427 9.65591 16.1569C9.84208 15.7034 9.18584 15.6028 9.17142 15.5991C8.36524 15.5991 4.12993 14.8017 2.96656 11.2512C1.80327 7.70075 3.30184 5.38007 4.10128 4.38246C4.6342 3.71736 4.58706 2.29993 3.95984 0.130014C6.23723 -0.121909 7.99464 0.498616 9.23225 1.99175C9.23345 2.00031 10.8547 1.15715 13.4169 1.15715C15.9792 1.15715 16.8882 1.84394 17.5897 1.99175C18.2912 2.13956 18.8523 -0.621914 23.1848 0.130014C22.2803 1.66908 21.5227 3.59228 22.101 4.38246C22.6791 5.17264 24.9482 7.68531 23.5544 11.2512C22.6251 13.6285 20.7984 15.0778 18.0743 15.5991C17.7618 15.6854 17.6057 15.8246 17.6057 16.0167C17.6057 16.3049 18.028 16.3363 18.6364 17.6862C19.042 18.5861 19.0713 21.1564 18.7242 25.397C17.8452 25.5907 17.1613 25.7208 16.6726 25.7873C15.806 25.9052 14.8652 25.9713 13.9407 25.9968C13.0163 26.0223 12.6291 25.8903 11.3511 25.7873C10.4991 25.7186 9.74743 25.5548 8.96398 25.397Z" fill="white"/>
</svg>
