<svg width="28" height="28" viewBox="0 0 28 28" fill="none" xmlns="http://www.w3.org/2000/svg">
<path d="M25.2932 0.66669H2.70658C2.45269 0.663164 2.20058 0.709687 1.96467 0.803602C1.72876 0.897517 1.51365 1.03698 1.33165 1.21404C1.14964 1.39109 1.00429 1.60227 0.903905 1.8355C0.803519 2.06874 0.75006 2.31946 0.746582 2.57336V25.4267C0.75006 25.6806 0.803519 25.9313 0.903905 26.1645C1.00429 26.3978 1.14964 26.6089 1.33165 26.786C1.51365 26.9631 1.72876 27.1025 1.96467 27.1964C2.20058 27.2904 2.45269 27.3369 2.70658 27.3334H25.2932C25.5471 27.3369 25.7992 27.2904 26.0352 27.1964C26.2711 27.1025 26.4862 26.9631 26.6682 26.786C26.8502 26.6089 26.9955 26.3978 27.0959 26.1645C27.1963 25.9313 27.2498 25.6806 27.2532 25.4267V2.57336C27.2498 2.31946 27.1963 2.06874 27.0959 1.8355C26.9955 1.60227 26.8502 1.39109 26.6682 1.21404C26.4862 1.03698 26.2711 0.897517 26.0352 0.803602C25.7992 0.709687 25.5471 0.663164 25.2932 0.66669V0.66669ZM8.78658 22.9867H4.78658V10.9867H8.78658V22.9867ZM6.78658 9.30669C6.23493 9.30669 5.70588 9.08755 5.3158 8.69747C4.92572 8.3074 4.70658 7.77834 4.70658 7.22669C4.70658 6.67504 4.92572 6.14598 5.3158 5.75591C5.70588 5.36583 6.23493 5.14669 6.78658 5.14669C7.07951 5.11347 7.37615 5.1425 7.65708 5.23187C7.93801 5.32124 8.1969 5.46894 8.41679 5.66531C8.63668 5.86167 8.81262 6.10226 8.93308 6.37133C9.05354 6.6404 9.11581 6.93188 9.11581 7.22669C9.11581 7.52149 9.05354 7.81298 8.93308 8.08205C8.81262 8.35112 8.63668 8.59171 8.41679 8.78807C8.1969 8.98444 7.93801 9.13214 7.65708 9.22151C7.37615 9.31088 7.07951 9.33991 6.78658 9.30669V9.30669ZM23.2132 22.9867H19.2132V16.5467C19.2132 14.9334 18.6399 13.88 17.1866 13.88C16.7368 13.8833 16.2988 14.0244 15.9317 14.2843C15.5646 14.5441 15.2859 14.9103 15.1332 15.3334C15.0289 15.6467 14.9837 15.9768 14.9999 16.3067V22.9734H10.9999C10.9999 22.9734 10.9999 12.0667 10.9999 10.9734H14.9999V12.6667C15.3633 12.0362 15.8918 11.5167 16.5285 11.1643C17.1652 10.8119 17.886 10.6398 18.6132 10.6667C21.2799 10.6667 23.2132 12.3867 23.2132 16.08V22.9867Z" fill="white"/>
</svg>
